name D:\school\WTK\thesis\model\3dpredictsim\Results\MidTarsalJoint\Fal_s1_bCst_PF_Natali2010_ls150_MT_k200_MTP_T5_ig24.mot
datacolumns 128
datarows 4
range 0.00000000 0.03426987
endheader
time	pelvis_tilt	pelvis_list	pelvis_rotation	pelvis_tx	pelvis_ty	pelvis_tz	hip_flexion_l	hip_adduction_l	hip_rotation_l	hip_flexion_r	hip_adduction_r	hip_rotation_r	knee_angle_l	knee_angle_r	ankle_angle_l	ankle_angle_r	subtalar_angle_l	subtalar_angle_r	mtj_angle_l	mtj_angle_r	mtp_angle_l	mtp_angle_r	lumbar_extension	lumbar_bending	lumbar_rotation	arm_flex_l	arm_add_l	arm_rot_l	arm_flex_r	arm_add_r	arm_rot_r	elbow_flex_l	elbow_flex_r	pro_sup_l	pro_sup_r	glut_med1_l/activation	glut_med2_l/activation	glut_med3_l/activation	glut_min1_l/activation	glut_min2_l/activation	glut_min3_l/activation	semimem_l/activation	semiten_l/activation	bifemlh_l/activation	bifemsh_l/activation	sar_l/activation	add_long_l/activation	add_brev_l/activation	add_mag1_l/activation	add_mag2_l/activation	add_mag3_l/activation	tfl_l/activation	pect_l/activation	grac_l/activation	glut_max1_l/activation	glut_max2_l/activation	glut_max3_l/activation	iliacus_l/activation	psoas_l/activation	quad_fem_l/activation	gem_l/activation	peri_l/activation	rect_fem_l/activation	vas_med_l/activation	vas_int_l/activation	vas_lat_l/activation	med_gas_l/activation	lat_gas_l/activation	soleus_l/activation	tib_post_l/activation	flex_dig_l/activation	flex_hal_l/activation	tib_ant_l/activation	per_brev_l/activation	per_long_l/activation	per_tert_l/activation	ext_dig_l/activation	ext_hal_l/activation	ercspn_l/activation	intobl_l/activation	extobl_l/activation	glut_med1_r/activation	glut_med2_r/activation	glut_med3_r/activation	glut_min1_r/activation	glut_min2_r/activation	glut_min3_r/activation	semimem_r/activation	semiten_r/activation	bifemlh_r/activation	bifemsh_r/activation	sar_r/activation	add_long_r/activation	add_brev_r/activation	add_mag1_r/activation	add_mag2_r/activation	add_mag3_r/activation	tfl_r/activation	pect_r/activation	grac_r/activation	glut_max1_r/activation	glut_max2_r/activation	glut_max3_r/activation	iliacus_r/activation	psoas_r/activation	quad_fem_r/activation	gem_r/activation	peri_r/activation	rect_fem_r/activation	vas_med_r/activation	vas_int_r/activation	vas_lat_r/activation	med_gas_r/activation	lat_gas_r/activation	soleus_r/activation	tib_post_r/activation	flex_dig_r/activation	flex_hal_r/activation	tib_ant_r/activation	per_brev_r/activation	per_long_r/activation	per_tert_r/activation	ext_dig_r/activation	ext_hal_r/activation	ercspn_r/activation	intobl_r/activation	extobl_r/activation	
          0.00000000	         -2.92961559	         -2.16348276	          5.44493917	          0.00000000	          0.91966731	         -0.00196327	        -16.39759039	         -0.99658230	          6.90969660	         29.33112347	          3.37001150	         -2.26753795	         -8.55981718	        -10.88424428	         -3.07951403	          5.44797975	          8.43172606	         -4.39147214	          6.39700315	         -0.21302309	          9.53031223	          0.88487128	         -1.96270586	          0.30181270	         -1.98144085	          5.30653619	        -13.45236355	         17.25832290	         -4.27996389	        -13.45450685	          8.59712557	         33.36244008	         15.21534263	         86.51662706	         86.51662706	          0.32573055	          0.10052151	          0.07968133	          0.31363261	          0.20797088	          0.11185805	          0.05000059	          0.05000011	          0.05000008	          0.05743165	          0.11195007	          0.05000003	          0.05000003	          0.05000005	          0.05000020	          0.05000018	          0.32422041	          0.05000016	          0.05000012	          0.05000909	          0.05000247	          0.05000048	          0.39077686	          0.61458481	          0.05000006	          0.05000033	          0.05526855	          0.23483820	          0.05000072	          0.05000035	          0.05000032	          0.29342163	          0.40021800	          0.35728173	          0.26908537	          0.24829403	          0.33056701	          0.05000003	          0.05831173	          0.12829908	          0.05000014	          0.05000004	          0.05000017	          0.05000000	          0.05000000	          0.05000002	          0.05965422	          0.05000032	          0.05951936	          0.05000006	          0.05000010	          0.05000066	          0.09197868	          0.05951961	          0.20527553	          0.05000034	          0.05000016	          0.10842041	          0.19108362	          0.20246449	          0.16796696	          0.09810234	          0.05951941	          0.05000157	          0.13573524	          0.05951956	          0.05951993	          0.09749965	          0.05000003	          0.05000005	          0.19312472	          0.05000073	          0.05000021	          0.05000004	          0.06122676	          0.06265379	          0.05200661	          0.05951940	          0.05951940	          0.05951940	          0.05000042	          0.05000043	          0.05000101	          0.45860851	          0.28239513	          0.17885077	          0.08151613	          0.45068630	          0.05000012	          0.05822157	          0.13353031	          0.10911547	
          0.01142329	         -2.92956875	         -2.24507693	          5.71491229	          0.01713854	          0.91881101	         -0.00175909	        -16.35866647	         -1.30122935	          6.72130695	         28.71023869	          3.76497137	         -2.08593528	        -10.29923009	        -10.91812658	         -3.54902155	          4.75055099	          9.46676659	         -4.80266072	          5.33337600	         -0.26541683	         11.44055321	          0.86757880	         -1.77209280	          0.49477548	         -2.05710154	          5.03693944	        -13.46247608	         17.57820533	         -5.17551665	        -13.45007866	          8.33272031	         34.54402919	         14.85421486	         86.51662706	         86.51662706	          0.27363396	          0.08444433	          0.06693730	          0.26347094	          0.17470850	          0.09396774	          0.05000096	          0.05000021	          0.05000028	          0.05000015	          0.09404513	          0.09819515	          0.07872546	          0.05013282	          0.05000248	          0.05000139	          0.27236537	          0.08119946	          0.05002393	          0.05000118	          0.05000081	          0.05000076	          0.32827688	          0.51984606	          0.05000155	          0.05951917	          0.05951947	          0.19727870	          0.05000076	          0.14753354	          0.13072647	          0.24649241	          0.33620801	          0.31541333	          0.23150783	          0.20858274	          0.27769729	          0.05000000	          0.05000025	          0.12501326	          0.05000005	          0.05000001	          0.05000007	          0.05000002	          0.07414619	          0.06566990	          0.05011336	          0.05000009	          0.05000004	          0.05951940	          0.05000105	          0.05000010	          0.07726782	          0.05000020	          0.17244426	          0.05000013	          0.05000244	          0.11951360	          0.27156635	          0.24877418	          0.16226408	          0.08243066	          0.05000008	          0.07085221	          0.11402629	          0.05000020	          0.05000047	          0.10239589	          0.07085114	          0.07085099	          0.54195211	          0.17803441	          0.16334571	          0.08434029	          0.19166841	          0.19100184	          0.16308790	          0.05000000	          0.05000002	          0.05000000	          0.05000051	          0.05000110	          0.05000124	          0.52887921	          0.23722959	          0.18594548	          0.21440620	          0.47681947	          0.05952008	          0.05000000	          0.11217376	          0.09166378	
          0.02284658	         -2.92574006	         -2.32886645	          5.95416805	          0.03463250	          0.91797389	         -0.00157711	        -16.27612381	         -1.60685655	          6.52342742	         27.95809570	          4.07537520	         -1.83951543	        -12.10091688	        -11.30894253	         -4.13996881	          4.10564442	         10.46931615	         -5.22379564	          4.07561927	         -0.44635784	         13.52517385	          0.86473117	         -1.55791318	          0.70000941	         -2.12221194	          4.67391994	        -13.47187443	         17.80758537	         -6.10907940	        -13.45266350	          8.10678770	         35.72673579	         14.55084497	         86.51662706	         86.51662706	          0.34883914	          0.07093850	          0.05623152	          0.22133205	          0.14676603	          0.07893876	          0.05000199	          0.05000060	          0.05000038	          0.05000014	          0.07900387	          0.12631102	          0.06783817	          0.05951975	          0.05951963	          0.05951939	          0.22880409	          0.08423384	          0.05265802	          0.05000358	          0.05000386	          0.05951894	          0.27577324	          0.51711791	          0.05649212	          0.05000091	          0.05000011	          0.16572637	          0.09877321	          0.12393756	          0.10981853	          0.20706894	          0.28243563	          0.26496680	          0.19448099	          0.17522253	          0.23328304	          0.05000004	          0.05000021	          0.15450954	          0.05000014	          0.05000017	          0.05000018	          0.05000020	          0.06228741	          0.05951957	          0.25218999	          0.05000011	          0.15642759	          0.05000011	          0.05000010	          0.22434065	          0.09058035	          0.09363467	          0.15396045	          0.05000012	          0.05000043	          0.10039888	          0.22813265	          0.20898585	          0.13631204	          0.09999381	          0.05000044	          0.05952063	          0.09578982	          0.05000039	          0.05000057	          0.08601897	          0.05951943	          0.05951936	          0.45527346	          0.14956000	          0.13722106	          0.07085109	          0.16101340	          0.16045343	          0.13700398	          0.05308626	          0.05428290	          0.05313405	          0.05000010	          0.05000034	          0.05000030	          0.45736047	          0.28678130	          0.15620589	          0.18011456	          0.55858264	          0.05000057	          0.05000000	          0.11951244	          0.07700328	
          0.03426987	         -2.91967196	         -2.41617158	          6.15720466	          0.05231183	          0.91717882	         -0.00139503	        -16.11788891	         -1.91015166	          6.32489217	         27.09114605	          4.32707375	         -1.58301766	        -14.00185634	        -11.66459092	         -4.85793479	          3.48270594	         11.42566617	         -5.64771752	          2.66423787	         -0.38844090	         15.69719280	          0.89512930	         -1.33728106	          0.91839952	         -2.17734921	          4.24218875	        -13.48333460	         17.95845548	         -7.04118130	        -13.46132167	          7.93290151	         36.90181732	         14.28349447	         86.51662706	         86.51662706	          0.31227121	          0.05959276	          0.05000004	          0.34993008	          0.12329264	          0.06631350	          0.05000090	          0.05000008	          0.05000006	          0.05000017	          0.07004409	          0.10610935	          0.05698833	          0.05000038	          0.05000050	          0.05000021	          0.19224893	          0.07076247	          0.05000025	          0.05000063	          0.05000034	          0.05000021	          0.23166674	          0.48424456	          0.05000004	          0.05000029	          0.05000021	          0.13922047	          0.08297616	          0.11951194	          0.11951216	          0.17395078	          0.23726348	          0.22258857	          0.16337613	          0.14719787	          0.19597229	          0.07599436	          0.10504271	          0.15142912	          0.05000026	          0.11310071	          0.05000049	          0.06560939	          0.05232530	          0.05000014	          0.31953594	          0.27113192	          0.31015633	          0.14150693	          0.22238469	          0.18846099	          0.07609314	          0.07865903	          0.12933635	          0.08178704	          0.05000247	          0.08434131	          0.19164562	          0.17556116	          0.11451067	          0.12291758	          0.05000031	          0.05000118	          0.08046956	          0.19619600	          0.14570978	          0.09430806	          0.05000005	          0.05000005	          0.38245802	          0.12563976	          0.12877040	          0.05951934	          0.13526140	          0.13479112	          0.11509198	          0.05000008	          0.05000015	          0.05000001	          0.05000002	          0.05000009	          0.05000012	          0.57194174	          0.32916655	          0.17578438	          0.53156688	          0.52023384	          0.23675298	          0.07063590	          0.10039791	          0.06468754	
